<svg width="666.2px" height="120.8px" xmlns="http://www.w3.org/2000/svg" viewBox="-83.11501464843747 14.600000000000001 666.2300292968749 120.8" style="background: rgba(0, 0, 0, 0)" preserveAspectRatio="xMidYMid"><defs><linearGradient id="editing-gradient-gradient" x1="0" x2="1" y1="0.5" y2="0.5" gradientUnits="objectBoundingBox"><stop offset="0" stop-color="#51b3e6"></stop><stop offset="1" stop-color="#ff00ff"></stop></linearGradient></defs><g><g transform="matrix(1.4,0,0,1.5,-50.2,175.5)"><path d="M -5 -51.6 L -18.9 -51.6 L -10.8 -93.9 L 3.3 -93.9 L -5 -51.6 Z M 50.8 -50.4 L 50.8 -50.4 L 50.8 -50.4 Q 43 -50.4 43 -56.4 L 43 -56.4 L 43 -56.4 Q 43 -59 44.1 -64.1 L 44.1 -64.1 L 44.1 -64.1 Q 45.3 -69.2 45.6 -71.2 L 45.6 -71.2 L 45.6 -71.2 Q 46.5 -75.9 46.5 -77.4 L 46.5 -77.4 L 46.5 -77.4 Q 46.5 -80.6 44.1 -80.6 L 44.1 -80.6 L 44.1 -80.6 Q 42.5 -80.6 41 -78.4 L 41 -78.4 L 41 -78.4 Q 39.4 -76.2 38.7 -71.8 L 38.7 -71.8 L 34.8 -51.6 L 22.3 -50.4 L 25.7 -67.8 L 25.7 -67.8 Q 26.3 -70.7 26.8 -73.9 L 26.8 -73.9 L 26.8 -73.9 Q 27.3 -77.2 27.3 -77.7 L 27.3 -77.7 L 27.3 -77.7 Q 27.3 -80.6 25.2 -80.6 L 25.2 -80.6 L 25.2 -80.6 Q 23.7 -80.6 22.1 -78.5 L 22.1 -78.5 L 22.1 -78.5 Q 20.5 -76.3 19.6 -71.8 L 19.6 -71.8 L 15.7 -51.6 L 3.1 -50.4 L 9.8 -84.3 L 20.2 -85.6 L 19.1 -79.1 L 19.1 -79.1 Q 20.8 -82.6 23.9 -84.1 L 23.9 -84.1 L 23.9 -84.1 Q 27 -85.6 31.8 -85.6 L 31.8 -85.6 L 31.8 -85.6 Q 34.5 -85.6 36.3 -84.2 L 36.3 -84.2 L 36.3 -84.2 Q 38.1 -82.9 38.7 -80.7 L 38.7 -80.7 L 38.7 -80.7 Q 39.8 -82.9 42.5 -84.3 L 42.5 -84.3 L 42.5 -84.3 Q 45.3 -85.6 48.7 -85.6 L 48.7 -85.6 L 48.7 -85.6 Q 52.2 -85.6 53.9 -84.8 L 53.9 -84.8 L 53.9 -84.8 Q 55.6 -84.1 56.6 -82.9 L 56.6 -82.9 L 56.6 -82.9 Q 58.3 -80.6 58.3 -76.5 L 58.3 -76.5 L 58.3 -76.5 Q 58.3 -72.5 56.6 -64.1 L 56.6 -64.1 L 56.6 -64.1 Q 55.7 -60 55.7 -58.5 L 55.7 -58.5 L 55.7 -58.5 Q 55.7 -57 56.6 -56.1 L 56.6 -56.1 L 56.6 -56.1 Q 57.4 -55.2 58.7 -55.1 L 58.7 -55.1 L 58.7 -55.1 Q 58.1 -52.9 55.9 -51.6 L 55.9 -51.6 L 55.9 -51.6 Q 53.6 -50.4 50.8 -50.4 Z M 66.4 -53.6 L 66.4 -53.6 L 66.4 -53.6 Q 64.9 -55.2 64.2 -57.9 L 64.2 -57.9 L 64.2 -57.9 Q 63.6 -60.5 63.6 -64.8 L 63.6 -64.8 L 63.6 -64.8 Q 63.6 -69.1 65 -73 L 65 -73 L 65 -73 Q 66.5 -76.9 69.2 -79.7 L 69.2 -79.7 L 69.2 -79.7 Q 74.7 -85.6 83.8 -85.6 L 83.8 -85.6 L 83.8 -85.6 Q 87.1 -85.6 89.4 -84.5 L 89.4 -84.5 L 100.4 -85.6 L 95.6 -60.6 L 95.6 -60.6 Q 95.4 -59.8 95.4 -58.4 L 95.4 -58.4 L 95.4 -58.4 Q 95.4 -57 96.3 -56.1 L 96.3 -56.1 L 96.3 -56.1 Q 97.2 -55.2 98.4 -55.1 L 98.4 -55.1 L 98.4 -55.1 Q 97.8 -52.9 95.5 -51.6 L 95.5 -51.6 L 95.5 -51.6 Q 93.1 -50.4 90.5 -50.4 L 90.5 -50.4 L 90.5 -50.4 Q 87.9 -50.4 86.1 -51.4 L 86.1 -51.4 L 86.1 -51.4 Q 84.4 -52.3 83.9 -54 L 83.9 -54 L 83.9 -54 Q 82.8 -52.4 80.7 -51.4 L 80.7 -51.4 L 80.7 -51.4 Q 78.5 -50.4 75.6 -50.4 L 75.6 -50.4 L 75.6 -50.4 Q 72.7 -50.4 70.3 -51.1 L 70.3 -51.1 L 70.3 -51.1 Q 67.9 -51.9 66.4 -53.6 Z M 79.9 -79.5 L 79.9 -79.5 L 79.9 -79.5 Q 79.2 -78.4 78.5 -76.4 L 78.5 -76.4 L 78.5 -76.4 Q 77.9 -74.5 76.8 -69.3 L 76.8 -69.3 L 76.8 -69.3 Q 75.8 -64.1 75.8 -60.3 L 75.8 -60.3 L 75.8 -60.3 Q 75.8 -56.6 76.4 -55.5 L 76.4 -55.5 L 76.4 -55.5 Q 76.9 -54.5 78 -54.5 L 78 -54.5 L 78 -54.5 Q 80 -54.5 81.5 -56.4 L 81.5 -56.4 L 81.5 -56.4 Q 83 -58.4 83.6 -61.8 L 83.6 -61.8 L 87 -80.6 L 87 -80.6 Q 85.6 -81.7 84.1 -81.7 L 84.1 -81.7 L 84.1 -81.7 Q 82.5 -81.7 81.6 -81.2 L 81.6 -81.2 L 81.6 -81.2 Q 80.7 -80.7 79.9 -79.5 Z M 108.1 -78.4 L 108.1 -78.4 L 108.1 -78.4 Q 110.3 -81.5 113.6 -83.5 L 113.6 -83.5 L 113.6 -83.5 Q 116.9 -85.6 120.9 -85.6 L 120.9 -85.6 L 120.9 -85.6 Q 124.9 -85.6 126.9 -84.3 L 126.9 -84.3 L 139.4 -85.6 L 135.1 -61 L 135.1 -61 Q 132.8 -48.4 128.1 -43.5 L 128.1 -43.5 L 128.1 -43.5 Q 123.5 -38.8 114.7 -38.8 L 114.7 -38.8 L 114.7 -38.8 Q 108 -38.8 104.1 -41 L 104.1 -41 L 104.1 -41 Q 100.3 -43.1 100.3 -46.6 L 100.3 -46.6 L 100.3 -46.6 Q 100.3 -49.2 102.3 -50.7 L 102.3 -50.7 L 102.3 -50.7 Q 104.3 -52.2 107.3 -52.2 L 107.3 -52.2 L 107.3 -52.2 Q 110 -52.2 112.1 -51 L 112.1 -51 L 112.1 -51 Q 113.3 -50.4 113.9 -49.5 L 113.9 -49.5 L 113.9 -49.5 Q 112.4 -48.2 112.4 -46.1 L 112.4 -46.1 L 112.4 -46.1 Q 112.4 -43.3 115 -43.3 L 115 -43.3 L 115 -43.3 Q 119.2 -43.3 121.7 -53.4 L 121.7 -53.4 L 121.7 -53.4 Q 122.4 -56.2 123 -58.9 L 123 -58.9 L 123 -58.9 Q 120.1 -55.4 113.5 -55.4 L 113.5 -55.4 L 113.5 -55.4 Q 109 -55.4 106.4 -57.6 L 106.4 -57.6 L 106.4 -57.6 Q 103.8 -59.8 103.8 -64.9 L 103.8 -64.9 L 103.8 -64.9 Q 103.8 -68.1 104.8 -71.7 L 104.8 -71.7 L 104.8 -71.7 Q 105.9 -75.3 108.1 -78.4 Z M 116.4 -64.7 L 116.4 -64.7 L 116.4 -64.7 Q 116.4 -60.3 118.7 -60.3 L 118.7 -60.3 L 118.7 -60.3 Q 120.2 -60.3 121.7 -62 L 121.7 -62 L 121.7 -62 Q 122.8 -63.4 123.3 -65.3 L 123.3 -65.3 L 126.5 -81.8 L 126.5 -81.8 Q 126.2 -81.9 125.9 -82 L 125.9 -82 L 125.9 -82 Q 125.3 -82.2 124.4 -82.2 L 124.4 -82.2 L 124.4 -82.2 Q 120.5 -82.2 118.2 -75.8 L 118.2 -75.8 L 118.2 -75.8 Q 116.4 -70.8 116.4 -64.7 Z M 167.8 -62.5 L 167.8 -62.5 L 167.8 -62.5 Q 169.4 -61.4 169.4 -59 L 169.4 -59 L 169.4 -59 Q 169.4 -56.6 168.2 -55 L 168.2 -55 L 168.2 -55 Q 167 -53.5 165 -52.5 L 165 -52.5 L 165 -52.5 Q 160.9 -50.4 156.5 -50.4 L 156.5 -50.4 L 156.5 -50.4 Q 152.1 -50.4 149.5 -51.3 L 149.5 -51.3 L 149.5 -51.3 Q 146.9 -52.3 145.2 -54.1 L 145.2 -54.1 L 145.2 -54.1 Q 141.8 -57.5 141.8 -63.7 L 141.8 -63.7 L 141.8 -63.7 Q 141.8 -73.3 147 -79.2 L 147 -79.2 L 147 -79.2 Q 152.7 -85.6 162.4 -85.6 L 162.4 -85.6 L 162.4 -85.6 Q 168.5 -85.6 171.5 -83 L 171.5 -83 L 171.5 -83 Q 173.8 -81.1 173.8 -77.9 L 173.8 -77.9 L 173.8 -77.9 Q 173.8 -66.7 154.3 -66.7 L 154.3 -66.7 L 154.3 -66.7 Q 154.1 -65 154.1 -63.6 L 154.1 -63.6 L 154.1 -63.6 Q 154.1 -60.7 155.4 -59.5 L 155.4 -59.5 L 155.4 -59.5 Q 156.7 -58.4 159.1 -58.4 L 159.1 -58.4 L 159.1 -58.4 Q 161.5 -58.4 164.1 -59.5 L 164.1 -59.5 L 164.1 -59.5 Q 166.7 -60.7 167.8 -62.5 Z M 154.8 -69.4 L 154.8 -69.4 L 154.8 -69.4 Q 159.3 -69.4 161.9 -72.3 L 161.9 -72.3 L 161.9 -72.3 Q 164.6 -74.9 164.6 -79.2 L 164.6 -79.2 L 164.6 -79.2 Q 164.6 -80.7 164 -81.5 L 164 -81.5 L 164 -81.5 Q 163.5 -82.3 162.4 -82.3 L 162.4 -82.3 L 162.4 -82.3 Q 161.3 -82.3 160.4 -81.9 L 160.4 -81.9 L 160.4 -81.9 Q 159.4 -81.5 158.5 -80.1 L 158.5 -80.1 L 158.5 -80.1 Q 156.1 -76.9 154.8 -69.4 Z M 195.1 -74.1 L 195.1 -74.1 L 195.1 -74.1 Q 196 -76.5 196 -78.5 L 196 -78.5 L 196 -78.5 Q 196 -82.3 192.9 -82.3 L 192.9 -82.3 L 192.9 -82.3 Q 191.3 -82.3 190 -80.9 L 190 -80.9 L 190 -80.9 Q 188.7 -79.4 188.7 -77.6 L 188.7 -77.6 L 188.7 -77.6 Q 188.7 -76.3 189.7 -75.3 L 189.7 -75.3 L 189.7 -75.3 Q 191.2 -73.9 195 -71.6 L 195 -71.6 L 195 -71.6 Q 198.7 -69.3 200.2 -67.4 L 200.2 -67.4 L 200.2 -67.4 Q 201.6 -65.5 201.6 -62.9 L 201.6 -62.9 L 201.6 -62.9 Q 201.6 -60.3 200.4 -58 L 200.4 -58 L 200.4 -58 Q 199.1 -55.6 196.9 -53.9 L 196.9 -53.9 L 196.9 -53.9 Q 192.1 -50.4 184.4 -50.4 L 184.4 -50.4 L 184.4 -50.4 Q 180.2 -50.4 177 -52.5 L 177 -52.5 L 177 -52.5 Q 173.8 -54.7 173.8 -57.1 L 173.8 -57.1 L 173.8 -57.1 Q 173.8 -59.6 175.7 -61.1 L 175.7 -61.1 L 175.7 -61.1 Q 177.5 -62.6 180.2 -62.6 L 180.2 -62.6 L 180.2 -62.6 Q 182.9 -62.6 184.5 -61.6 L 184.5 -61.6 L 184.5 -61.6 Q 183.7 -59.5 183.7 -58 L 183.7 -58 L 183.7 -58 Q 183.7 -53.8 187.3 -53.8 L 187.3 -53.8 L 187.3 -53.8 Q 188.8 -53.8 189.8 -54.8 L 189.8 -54.8 L 189.8 -54.8 Q 190.9 -55.7 190.9 -57.4 L 190.9 -57.4 L 190.9 -57.4 Q 190.9 -60.7 185.4 -64.1 L 185.4 -64.1 L 185.4 -64.1 Q 180.9 -67.1 179.9 -68.2 L 179.9 -68.2 L 179.9 -68.2 Q 178.1 -70.3 178.1 -72.8 L 178.1 -72.8 L 178.1 -72.8 Q 178.1 -75.4 179.3 -77.8 L 179.3 -77.8 L 179.3 -77.8 Q 180.6 -80.3 182.8 -82 L 182.8 -82 L 182.8 -82 Q 187.5 -85.6 195.6 -85.6 L 195.6 -85.6 L 195.6 -85.6 Q 199.8 -85.6 202.2 -83.9 L 202.2 -83.9 L 202.2 -83.9 Q 204.7 -82.2 204.7 -79.4 L 204.7 -79.4 L 204.7 -79.4 Q 204.7 -76.6 203 -75 L 203 -75 L 203 -75 Q 201.3 -73.4 198.2 -73.4 L 198.2 -73.4 L 198.2 -73.4 Q 196.1 -73.4 195.1 -74.1 Z M 246.2 -72.3 L 259.1 -73.4 L 259.1 -73.4 Q 254.5 -63.3 254.5 -51.6 L 254.5 -51.6 L 254.5 -51.6 Q 252.7 -50.4 250.2 -50.4 L 250.2 -50.4 L 250.2 -50.4 Q 247.7 -50.4 246.1 -51.5 L 246.1 -51.5 L 246.1 -51.5 Q 244.5 -52.7 244.2 -53.9 L 244.2 -53.9 L 244.2 -53.9 Q 242.6 -52.3 240 -51.3 L 240 -51.3 L 240 -51.3 Q 237.4 -50.4 234.6 -50.4 L 234.6 -50.4 L 234.6 -50.4 Q 231.9 -50.4 229.5 -51.3 L 229.5 -51.3 L 229.5 -51.3 Q 227.1 -52.2 225.2 -54.1 L 225.2 -54.1 L 225.2 -54.1 Q 221.1 -58.5 221.1 -66.7 L 221.1 -66.7 L 221.1 -66.7 Q 221.1 -79.5 228 -87.2 L 228 -87.2 L 228 -87.2 Q 235 -95.2 247.5 -95.2 L 247.5 -95.2 L 247.5 -95.2 Q 256.1 -95.2 259.2 -90.7 L 259.2 -90.7 L 259.2 -90.7 Q 260.2 -89.3 260.2 -87.6 L 260.2 -87.6 L 260.2 -87.6 Q 260.2 -85.9 259.4 -84.4 L 259.4 -84.4 L 259.4 -84.4 Q 258.7 -83 257.5 -81.9 L 257.5 -81.9 L 257.5 -81.9 Q 254.8 -79.3 251.4 -79.3 L 251.4 -79.3 L 251.4 -79.3 Q 250.1 -79.3 248.8 -79.7 L 248.8 -79.7 L 248.8 -79.7 Q 249 -81.7 249 -83.9 L 249 -83.9 L 249 -83.9 Q 249 -86.1 248.9 -87.2 L 248.9 -87.2 L 248.9 -87.2 Q 248.7 -88.2 248.3 -89 L 248.3 -89 L 248.3 -89 Q 247.5 -90.7 245.7 -90.7 L 245.7 -90.7 L 245.7 -90.7 Q 243.9 -90.7 241.8 -88.8 L 241.8 -88.8 L 241.8 -88.8 Q 239.8 -86.8 238.2 -83.6 L 238.2 -83.6 L 238.2 -83.6 Q 234.7 -76.5 234.7 -67.8 L 234.7 -67.8 L 234.7 -67.8 Q 234.7 -63.9 236.2 -61.1 L 236.2 -61.1 L 236.2 -61.1 Q 237.9 -58 240.8 -58 L 240.8 -58 L 240.8 -58 Q 241.9 -58 242.8 -58.5 L 242.8 -58.5 L 242.8 -58.5 Q 243.7 -59 244.1 -59.4 L 244.1 -59.4 L 246.2 -72.3 Z M 265 -53.6 L 265 -53.6 L 265 -53.6 Q 263.5 -55.2 262.8 -57.9 L 262.8 -57.9 L 262.8 -57.9 Q 262.2 -60.5 262.2 -64.8 L 262.2 -64.8 L 262.2 -64.8 Q 262.2 -69.1 263.6 -73 L 263.6 -73 L 263.6 -73 Q 265.1 -76.9 267.8 -79.7 L 267.8 -79.7 L 267.8 -79.7 Q 273.3 -85.6 282.4 -85.6 L 282.4 -85.6 L 282.4 -85.6 Q 285.6 -85.6 288 -84.5 L 288 -84.5 L 299 -85.6 L 294.2 -60.6 L 294.2 -60.6 Q 294 -59.8 294 -58.4 L 294 -58.4 L 294 -58.4 Q 294 -57 294.9 -56.1 L 294.9 -56.1 L 294.9 -56.1 Q 295.8 -55.2 297 -55.1 L 297 -55.1 L 297 -55.1 Q 296.4 -52.9 294.1 -51.6 L 294.1 -51.6 L 294.1 -51.6 Q 291.7 -50.4 289.1 -50.4 L 289.1 -50.4 L 289.1 -50.4 Q 286.5 -50.4 284.7 -51.4 L 284.7 -51.4 L 284.7 -51.4 Q 283 -52.3 282.4 -54 L 282.4 -54 L 282.4 -54 Q 281.4 -52.4 279.2 -51.4 L 279.2 -51.4 L 279.2 -51.4 Q 277.1 -50.4 274.2 -50.4 L 274.2 -50.4 L 274.2 -50.4 Q 271.2 -50.4 268.9 -51.1 L 268.9 -51.1 L 268.9 -51.1 Q 266.5 -51.9 265 -53.6 Z M 278.5 -79.5 L 278.5 -79.5 L 278.5 -79.5 Q 277.8 -78.4 277.1 -76.4 L 277.1 -76.4 L 277.1 -76.4 Q 276.5 -74.5 275.4 -69.3 L 275.4 -69.3 L 275.4 -69.3 Q 274.4 -64.1 274.4 -60.3 L 274.4 -60.3 L 274.4 -60.3 Q 274.4 -56.6 275 -55.5 L 275 -55.5 L 275 -55.5 Q 275.5 -54.5 276.6 -54.5 L 276.6 -54.5 L 276.6 -54.5 Q 278.6 -54.5 280.1 -56.4 L 280.1 -56.4 L 280.1 -56.4 Q 281.6 -58.4 282.2 -61.8 L 282.2 -61.8 L 285.6 -80.6 L 285.6 -80.6 Q 284.2 -81.7 282.7 -81.7 L 282.7 -81.7 L 282.7 -81.7 Q 281.1 -81.7 280.2 -81.2 L 280.2 -81.2 L 280.2 -81.2 Q 279.2 -80.7 278.5 -79.5 Z M 317.7 -55.2 L 317.7 -55.2 L 317.7 -55.2 Q 315.7 -50.4 309.4 -50.4 L 309.4 -50.4 L 309.4 -50.4 Q 306.2 -50.4 304.1 -52.6 L 304.1 -52.6 L 304.1 -52.6 Q 302.5 -54.5 302.5 -56.6 L 302.5 -56.6 L 302.5 -56.6 Q 302.5 -61.4 304.7 -71.9 L 304.7 -71.9 L 309.4 -96.4 L 322.4 -97.7 L 316.2 -65.3 L 316.2 -65.3 Q 315.1 -60.6 315.1 -58.9 L 315.1 -58.9 L 315.1 -58.9 Q 315.1 -55.3 317.7 -55.2 Z M 338.4 -55.2 L 338.4 -55.2 L 338.4 -55.2 Q 336.5 -50.4 330.1 -50.4 L 330.1 -50.4 L 330.1 -50.4 Q 326.9 -50.4 324.9 -52.6 L 324.9 -52.6 L 324.9 -52.6 Q 323.2 -54.5 323.2 -56.6 L 323.2 -56.6 L 323.2 -56.6 Q 323.2 -61.4 325.5 -71.9 L 325.5 -71.9 L 330.1 -96.4 L 343.1 -97.7 L 336.9 -65.3 L 336.9 -65.3 Q 335.8 -60.6 335.8 -58.9 L 335.8 -58.9 L 335.8 -58.9 Q 335.8 -55.3 338.4 -55.2 Z M 346.7 -53.6 L 346.7 -53.6 L 346.7 -53.6 Q 345.2 -55.2 344.5 -57.9 L 344.5 -57.9 L 344.5 -57.9 Q 343.8 -60.5 343.8 -64.8 L 343.8 -64.8 L 343.8 -64.8 Q 343.8 -69.1 345.3 -73 L 345.3 -73 L 345.3 -73 Q 346.8 -76.9 349.5 -79.7 L 349.5 -79.7 L 349.5 -79.7 Q 355 -85.6 364 -85.6 L 364 -85.6 L 364 -85.6 Q 367.3 -85.6 369.7 -84.5 L 369.7 -84.5 L 380.6 -85.6 L 375.9 -60.6 L 375.9 -60.6 Q 375.7 -59.8 375.7 -58.4 L 375.7 -58.4 L 375.7 -58.4 Q 375.7 -57 376.6 -56.1 L 376.6 -56.1 L 376.6 -56.1 Q 377.4 -55.2 378.7 -55.1 L 378.7 -55.1 L 378.7 -55.1 Q 378.1 -52.9 375.7 -51.6 L 375.7 -51.6 L 375.7 -51.6 Q 373.4 -50.4 370.8 -50.4 L 370.8 -50.4 L 370.8 -50.4 Q 368.1 -50.4 366.4 -51.4 L 366.4 -51.4 L 366.4 -51.4 Q 364.6 -52.3 364.1 -54 L 364.1 -54 L 364.1 -54 Q 363.1 -52.4 360.9 -51.4 L 360.9 -51.4 L 360.9 -51.4 Q 358.7 -50.4 355.8 -50.4 L 355.8 -50.4 L 355.8 -50.4 Q 352.9 -50.4 350.5 -51.1 L 350.5 -51.1 L 350.5 -51.1 Q 348.2 -51.9 346.7 -53.6 Z M 360.2 -79.5 L 360.2 -79.5 L 360.2 -79.5 Q 359.4 -78.4 358.8 -76.4 L 358.8 -76.4 L 358.8 -76.4 Q 358.2 -74.5 357.1 -69.3 L 357.1 -69.3 L 357.1 -69.3 Q 356 -64.1 356 -60.3 L 356 -60.3 L 356 -60.3 Q 356 -56.6 356.6 -55.5 L 356.6 -55.5 L 356.6 -55.5 Q 357.2 -54.5 358.2 -54.5 L 358.2 -54.5 L 358.2 -54.5 Q 360.3 -54.5 361.8 -56.4 L 361.8 -56.4 L 361.8 -56.4 Q 363.3 -58.4 363.9 -61.8 L 363.9 -61.8 L 367.2 -80.6 L 367.2 -80.6 Q 365.9 -81.7 364.3 -81.7 L 364.3 -81.7 L 364.3 -81.7 Q 362.8 -81.7 361.8 -81.2 L 361.8 -81.2 L 361.8 -81.2 Q 360.9 -80.7 360.2 -79.5 Z M 404.1 -69.6 L 404.1 -69.6 L 404.1 -69.6 Q 406.4 -73.7 406.4 -77.9 L 406.4 -77.9 L 406.4 -77.9 Q 406.4 -80.6 404.4 -80.6 L 404.4 -80.6 L 404.4 -80.6 Q 402.9 -80.6 401.3 -78 L 401.3 -78 L 401.3 -78 Q 399.6 -75.4 399.1 -72 L 399.1 -72 L 395.8 -51.6 L 382.5 -50.4 L 389.1 -84.3 L 399.6 -85.6 L 398.5 -79.1 L 398.5 -79.1 Q 401.6 -85.6 408.7 -85.6 L 408.7 -85.6 L 408.7 -85.6 Q 412.4 -85.6 414.4 -83.6 L 414.4 -83.6 L 414.4 -83.6 Q 416.4 -81.7 416.4 -77.8 L 416.4 -77.8 L 416.4 -77.8 Q 416.4 -73.9 413.8 -71.4 L 413.8 -71.4 L 413.8 -71.4 Q 411.2 -68.9 406.8 -68.9 L 406.8 -68.9 L 406.8 -68.9 Q 404.9 -68.9 404.1 -69.6 Z M 437.8 -58.9 L 437.8 -58.9 L 437.8 -58.9 Q 434.4 -55.4 428.4 -55.4 L 428.4 -55.4 L 428.4 -55.4 Q 420.7 -55.4 419.1 -61 L 419.1 -61 L 419.1 -61 Q 418.6 -62.7 418.6 -64.5 L 418.6 -64.5 L 418.6 -64.5 Q 418.6 -66.4 419 -68.3 L 419 -68.3 L 422 -84.3 L 435 -85.6 L 431.5 -66.9 L 431.5 -66.9 Q 431.4 -66.1 431.2 -65.2 L 431.2 -65.2 L 431.2 -65.2 Q 431 -64.3 431 -63.4 L 431 -63.4 L 431 -63.4 Q 431 -62.5 431.3 -61.9 L 431.3 -61.9 L 431.3 -61.9 Q 431.6 -61.2 432.1 -60.9 L 432.1 -60.9 L 432.1 -60.9 Q 432.8 -60.3 434.2 -60.3 L 434.2 -60.3 L 434.2 -60.3 Q 435.6 -60.3 436.8 -62 L 436.8 -62 L 436.8 -62 Q 438 -63.7 438.5 -66.6 L 438.5 -66.6 L 442.1 -84.3 L 454.7 -85.6 L 449.9 -60.4 L 449.9 -60.4 Q 447.5 -48.1 442.6 -43.3 L 442.6 -43.3 L 442.6 -43.3 Q 440.1 -40.8 436.9 -39.8 L 436.9 -39.8 L 436.9 -39.8 Q 433.7 -38.8 429.5 -38.8 L 429.5 -38.8 L 429.5 -38.8 Q 422.8 -38.8 419 -40.9 L 419 -40.9 L 419 -40.9 Q 415.1 -43 415.1 -46.5 L 415.1 -46.5 L 415.1 -46.5 Q 415.1 -49.1 417.1 -50.7 L 417.1 -50.7 L 417.1 -50.7 Q 419.1 -52.2 422.2 -52.2 L 422.2 -52.2 L 422.2 -52.2 Q 424.8 -52.2 426.9 -51 L 426.9 -51 L 426.9 -51 Q 428.1 -50.3 428.7 -49.4 L 428.7 -49.4 L 428.7 -49.4 Q 427.2 -48.1 427.2 -46 L 427.2 -46 L 427.2 -46 Q 427.2 -43.2 429.8 -43.2 L 429.8 -43.2 L 429.8 -43.2 Q 434 -43.2 436.4 -52.9 L 436.4 -52.9 L 436.4 -52.9 Q 437.1 -55.8 437.8 -58.9 Z" fill="url(#editing-gradient-gradient)"></path></g></g><style>text {
  font-size: 64px;
  font-family: Arial Black;
  dominant-baseline: central;
  text-anchor: middle;
}</style></svg>